# xmcd CD database file
#
# Track frame offsets:
#	150
#	11375
#	27050
#	41082
#	59810
#	74387
#	91104
#	102579
#	112854
#	123575
#	139602
#	153402
#	170685
#	180252
#	191727
#	203952
#	216267
#
# Disc length: 3054 seconds
#
# Revision: 2
# Processed by: cddbd v1.4PL0 Copyright (c) Steve Scherf et al.
# Submitted via: CDex 1.40Release
#
DISCID=ef0bec11
DTITLE=Various Artist - The New American Spirit
DYEAR=1900
DGENRE=Country
TTITLE0=Sunbeam
TTITLE1=Son Of Texas
TTITLE2=No End To The Travelling
TTITLE3=Full Moon Night
TTITLE4=In The Middle Of Nowhere
TTITLE5=Cajun Radio
TTITLE6=Les Bon Temps
TTITLE7=Saturday Night
TTITLE8=Guitar Fiddlin' Joe
TTITLE9=The Gambler
TTITLE10=Hard Driving Man
TTITLE11=1-900-LOVE
TTITLE12=Cab-Over Pete
TTITLE13=A Man Out Standing In His Field
TTITLE14=No Sense At All
TTITLE15=Saskatchewan Song
TTITLE16=Pretty Memories
EXTD=ID3G: 2
EXTT0=
EXTT1=
EXTT2=
EXTT3=
EXTT4=
EXTT5=
EXTT6=
EXTT7=
EXTT8=
EXTT9=
EXTT10=
EXTT11=
EXTT12=
EXTT13=
EXTT14=
EXTT15=
EXTT16=
PLAYORDER=
